<svg width="84" height="75" viewBox="0 0 84 75" fill="none" xmlns="http://www.w3.org/2000/svg">
<path d="M6 0C2.685 0 0 2.685 0 6V54C0 57.315 2.685 60 6 60H36.6914C36.2504 58.068 36 56.064 36 54C36 52.986 36.0648 51.987 36.1758 51H9V30L15.8672 23.1328C18.7022 20.2978 23.2978 20.2978 26.1328 23.1328L41.1621 38.1621C46.0701 31.4091 54.012 27 63 27C68.553 27 73.71 28.6787 78 31.5527V6C78 2.685 75.315 0 72 0H6ZM63 9C66.315 9 69 11.685 69 15C69 18.315 66.315 21 63 21C59.685 21 57 18.315 57 15C57 11.685 59.685 9 63 9ZM63 33C51.402 33 42 42.402 42 54C42 65.598 51.402 75 63 75C74.598 75 84 65.598 84 54C84 42.402 74.598 33 63 33ZM63 42C64.656 42 66 43.341 66 45V51H72C73.656 51 75 52.341 75 54C75 55.659 73.656 57 72 57H66V63C66 64.659 64.656 66 63 66C61.344 66 60 64.659 60 63V57H54C52.344 57 51 55.659 51 54C51 52.341 52.344 51 54 51H60V45C60 43.341 61.344 42 63 42Z" fill="#CCCCCC"/>
</svg>
